<mxGraphModel dx="0" dy="0" grid="1" gridSize="10" guides="1" tooltips="1" connect="1" arrows="1" fold="1" page="0" pageScale="1" background="none" math="0" shadow="0">
  <root>
    <mxCell id="0" />
    <mxCell id="1" parent="0" />
    <mxCell id="node1" parent="1" vertex="1" value="&lt;p style=&quot;margin:0px;margin-top:4px;text-align:center;&quot;&gt;&lt;b&gt;ActivityService&lt;/b&gt;&lt;/p&gt;&lt;hr size=&quot;1&quot;/&gt;&lt;p style=&quot;margin:0 0 0 4px;line-height:1.6;&quot;&gt;+ ActivityService(): &lt;/p&gt;&lt;hr size=&quot;1&quot;/&gt;&lt;p style=&quot;margin:0 0 0 4px;line-height:1.6;&quot;&gt;- activityMapper: ActivityMapper&lt;br/&gt;- activitySignService: ActivitySignService&lt;/p&gt;&lt;hr size=&quot;1&quot;/&gt;&lt;p style=&quot;margin:0 0 0 4px;line-height:1.6;&quot;&gt;+ selectById(Integer): Activity&lt;br/&gt;+ deleteById(Integer): void&lt;br/&gt;+ deleteBatch(List&amp;lt;Integer&amp;gt;): void&lt;br/&gt;+ selectAll(Activity): List&amp;lt;Activity&amp;gt;&lt;br/&gt;+ updateById(Activity): void&lt;br/&gt;+ add(Activity): void&lt;br/&gt;+ selectPage(Activity, Integer, Integer): PageInfo&amp;lt;Activity&amp;gt;&lt;/p&gt;" style="verticalAlign=top;align=left;overflow=fill;fontSize=14;fontFamily=Helvetica;html=1;rounded=0;shadow=0;comic=0;labelBackgroundColor=none;strokeWidth=1;">
      <mxGeometry x="408" y="408" width="376" height="263" as="geometry" />
    </mxCell>
    <mxCell id="node11" parent="1" vertex="1" value="&lt;p style=&quot;margin:0px;margin-top:4px;text-align:center;&quot;&gt;&lt;b&gt;ActivitySignService&lt;/b&gt;&lt;/p&gt;&lt;hr size=&quot;1&quot;/&gt;&lt;p style=&quot;margin:0 0 0 4px;line-height:1.6;&quot;&gt;+ ActivitySignService(): &lt;/p&gt;&lt;hr size=&quot;1&quot;/&gt;&lt;p style=&quot;margin:0 0 0 4px;line-height:1.6;&quot;&gt;- activitySignMapper: ActivitySignMapper&lt;/p&gt;&lt;hr size=&quot;1&quot;/&gt;&lt;p style=&quot;margin:0 0 0 4px;line-height:1.6;&quot;&gt;+ selectById(Integer): ActivitySign&lt;br/&gt;+ selectPage(ActivitySign, Integer, Integer): PageInfo&amp;lt;ActivitySign&amp;gt;&lt;br/&gt;+ selectCount(): List&amp;lt;Dict&amp;gt;&lt;br/&gt;+ selectByActivityIdAndUserId(Integer, Integer): ActivitySign&lt;br/&gt;+ deleteById(Integer): void&lt;br/&gt;+ updateById(ActivitySign): void&lt;br/&gt;+ selectAll(ActivitySign): List&amp;lt;ActivitySign&amp;gt;&lt;br/&gt;+ deleteBatch(List&amp;lt;Integer&amp;gt;): void&lt;br/&gt;+ add(ActivitySign): void&lt;/p&gt;" style="verticalAlign=top;align=left;overflow=fill;fontSize=14;fontFamily=Helvetica;html=1;rounded=0;shadow=0;comic=0;labelBackgroundColor=none;strokeWidth=1;">
      <mxGeometry x="63" y="1516" width="426" height="286" as="geometry" />
    </mxCell>
    <mxCell id="node16" parent="1" vertex="1" value="&lt;p style=&quot;margin:0px;margin-top:4px;text-align:center;&quot;&gt;&lt;b&gt;AddressService&lt;/b&gt;&lt;/p&gt;&lt;hr size=&quot;1&quot;/&gt;&lt;p style=&quot;margin:0 0 0 4px;line-height:1.6;&quot;&gt;+ AddressService(): &lt;/p&gt;&lt;hr size=&quot;1&quot;/&gt;&lt;p style=&quot;margin:0 0 0 4px;line-height:1.6;&quot;&gt;- addressMapper: AddressMapper&lt;/p&gt;&lt;hr size=&quot;1&quot;/&gt;&lt;p style=&quot;margin:0 0 0 4px;line-height:1.6;&quot;&gt;+ selectById(Integer): Address&lt;br/&gt;+ updateById(Address): void&lt;br/&gt;+ deleteById(Integer): void&lt;br/&gt;+ deleteBatch(List&amp;lt;Integer&amp;gt;): void&lt;br/&gt;+ selectAll(Address): List&amp;lt;Address&amp;gt;&lt;br/&gt;+ add(Address): void&lt;br/&gt;+ selectPage(Address, Integer, Integer): PageInfo&amp;lt;Address&amp;gt;&lt;/p&gt;" style="verticalAlign=top;align=left;overflow=fill;fontSize=14;fontFamily=Helvetica;html=1;rounded=0;shadow=0;comic=0;labelBackgroundColor=none;strokeWidth=1;">
      <mxGeometry x="-215" y="1139" width="382" height="240" as="geometry" />
    </mxCell>
    <mxCell id="node10" parent="1" vertex="1" value="&lt;p style=&quot;margin:0px;margin-top:4px;text-align:center;&quot;&gt;&lt;b&gt;AdminService&lt;/b&gt;&lt;/p&gt;&lt;hr size=&quot;1&quot;/&gt;&lt;p style=&quot;margin:0 0 0 4px;line-height:1.6;&quot;&gt;+ AdminService(): &lt;/p&gt;&lt;hr size=&quot;1&quot;/&gt;&lt;p style=&quot;margin:0 0 0 4px;line-height:1.6;&quot;&gt;- passwordEncoder: PasswordEncoder&lt;br/&gt;- log: Logger&lt;br/&gt;- adminMapper: AdminMapper&lt;/p&gt;&lt;hr size=&quot;1&quot;/&gt;&lt;p style=&quot;margin:0 0 0 4px;line-height:1.6;&quot;&gt;+ selectPage(Admin, Integer, Integer): PageInfo&amp;lt;Admin&amp;gt;&lt;br/&gt;+ selectAll(Admin): List&amp;lt;Admin&amp;gt;&lt;br/&gt;+ deleteById(Integer): void&lt;br/&gt;+ updateById(Admin): void&lt;br/&gt;+ login(Account): Account&lt;br/&gt;+ register(Account): void&lt;br/&gt;+ add(Admin): void&lt;br/&gt;+ updatePassword(Account): void&lt;br/&gt;+ deleteBatch(List&amp;lt;Integer&amp;gt;): void&lt;br/&gt;+ selectById(Integer): Admin&lt;/p&gt;" style="verticalAlign=top;align=left;overflow=fill;fontSize=14;fontFamily=Helvetica;html=1;rounded=0;shadow=0;comic=0;labelBackgroundColor=none;strokeWidth=1;">
      <mxGeometry x="693" y="722" width="366" height="355" as="geometry" />
    </mxCell>
    <mxCell id="node13" parent="1" vertex="1" value="&lt;p style=&quot;margin:0px;margin-top:4px;text-align:center;&quot;&gt;&lt;b&gt;CategoryService&lt;/b&gt;&lt;/p&gt;&lt;hr size=&quot;1&quot;/&gt;&lt;p style=&quot;margin:0 0 0 4px;line-height:1.6;&quot;&gt;+ CategoryService(): &lt;/p&gt;&lt;hr size=&quot;1&quot;/&gt;&lt;p style=&quot;margin:0 0 0 4px;line-height:1.6;&quot;&gt;- categoryMapper: CategoryMapper&lt;/p&gt;&lt;hr size=&quot;1&quot;/&gt;&lt;p style=&quot;margin:0 0 0 4px;line-height:1.6;&quot;&gt;+ deleteById(Integer): void&lt;br/&gt;+ updateById(Category): void&lt;br/&gt;+ selectPage(Category, Integer, Integer): PageInfo&amp;lt;Category&amp;gt;&lt;br/&gt;+ selectById(Integer): Category&lt;br/&gt;+ deleteBatch(List&amp;lt;Integer&amp;gt;): void&lt;br/&gt;+ selectAll(Category): List&amp;lt;Category&amp;gt;&lt;br/&gt;+ add(Category): void&lt;/p&gt;" style="verticalAlign=top;align=left;overflow=fill;fontSize=14;fontFamily=Helvetica;html=1;rounded=0;shadow=0;comic=0;labelBackgroundColor=none;strokeWidth=1;">
      <mxGeometry x="-221" y="419" width="394" height="240" as="geometry" />
    </mxCell>
    <mxCell id="node15" parent="1" vertex="1" value="&lt;p style=&quot;margin:0px;margin-top:4px;text-align:center;&quot;&gt;&lt;b&gt;CertificationService&lt;/b&gt;&lt;/p&gt;&lt;hr size=&quot;1&quot;/&gt;&lt;p style=&quot;margin:0 0 0 4px;line-height:1.6;&quot;&gt;+ CertificationService(): &lt;/p&gt;&lt;hr size=&quot;1&quot;/&gt;&lt;p style=&quot;margin:0 0 0 4px;line-height:1.6;&quot;&gt;- certificationMapper: CertificationMapper&lt;/p&gt;&lt;hr size=&quot;1&quot;/&gt;&lt;p style=&quot;margin:0 0 0 4px;line-height:1.6;&quot;&gt;+ selectPageInfo(Certification, Integer, Integer): PageInfo&amp;lt;Certification&amp;gt;&lt;br/&gt;+ deleteById(Integer): void&lt;br/&gt;+ selectUserCertification(): Certification&lt;br/&gt;+ selectByUserId(Integer): Certification&lt;br/&gt;+ selectById(Integer): Certification&lt;br/&gt;+ add(Certification): void&lt;br/&gt;+ selectPage(Certification, Integer, Integer): PageInfo&amp;lt;Certification&amp;gt;&lt;br/&gt;+ updateById(Certification): void&lt;br/&gt;+ deleteBatch(List&amp;lt;Integer&amp;gt;): void&lt;br/&gt;+ selectAll(Certification): List&amp;lt;Certification&amp;gt;&lt;/p&gt;" style="verticalAlign=top;align=left;overflow=fill;fontSize=14;fontFamily=Helvetica;html=1;rounded=0;shadow=0;comic=0;labelBackgroundColor=none;strokeWidth=1;">
      <mxGeometry x="-210" y="1885" width="453" height="309" as="geometry" />
    </mxCell>
    <mxCell id="node2" parent="1" vertex="1" value="&lt;p style=&quot;margin:0px;margin-top:4px;text-align:center;&quot;&gt;&lt;b&gt;CommentService&lt;/b&gt;&lt;/p&gt;&lt;hr size=&quot;1&quot;/&gt;&lt;p style=&quot;margin:0 0 0 4px;line-height:1.6;&quot;&gt;+ CommentService(): &lt;/p&gt;&lt;hr size=&quot;1&quot;/&gt;&lt;p style=&quot;margin:0 0 0 4px;line-height:1.6;&quot;&gt;- commentMapper: CommentMapper&lt;/p&gt;&lt;hr size=&quot;1&quot;/&gt;&lt;p style=&quot;margin:0 0 0 4px;line-height:1.6;&quot;&gt;+ deleteById(Integer): void&lt;br/&gt;+ deepDelete(Integer): void&lt;br/&gt;+ updateById(Comment): void&lt;br/&gt;+ add(Comment): void&lt;br/&gt;+ selectById(Integer): Comment&lt;br/&gt;+ deleteBatch(List&amp;lt;Integer&amp;gt;): void&lt;br/&gt;+ selectAll(Comment): List&amp;lt;Comment&amp;gt;&lt;br/&gt;+ selectPage(Comment, Integer, Integer): PageInfo&amp;lt;Comment&amp;gt;&lt;br/&gt;+ selectTree(Integer, String): List&amp;lt;Comment&amp;gt;&lt;br/&gt;+ selectCount(Integer, String): Integer&lt;/p&gt;" style="verticalAlign=top;align=left;overflow=fill;fontSize=14;fontFamily=Helvetica;html=1;rounded=0;shadow=0;comic=0;labelBackgroundColor=none;strokeWidth=1;">
      <mxGeometry x="474" y="2265" width="404" height="309" as="geometry" />
    </mxCell>
    <mxCell id="node12" parent="1" vertex="1" value="&lt;p style=&quot;margin:0px;margin-top:4px;text-align:center;&quot;&gt;&lt;b&gt;EvaluateService&lt;/b&gt;&lt;/p&gt;&lt;hr size=&quot;1&quot;/&gt;&lt;p style=&quot;margin:0 0 0 4px;line-height:1.6;&quot;&gt;+ EvaluateService(): &lt;/p&gt;&lt;hr size=&quot;1&quot;/&gt;&lt;p style=&quot;margin:0 0 0 4px;line-height:1.6;&quot;&gt;- evaluateMapper: EvaluateMapper&lt;br/&gt;- ordersService: OrdersService&lt;/p&gt;&lt;hr size=&quot;1&quot;/&gt;&lt;p style=&quot;margin:0 0 0 4px;line-height:1.6;&quot;&gt;+ selectPage(Evaluate, Integer, Integer): PageInfo&amp;lt;Evaluate&amp;gt;&lt;br/&gt;+ selectComment(Integer): List&amp;lt;Evaluate&amp;gt;&lt;br/&gt;+ selectById(Integer): Evaluate&lt;br/&gt;+ selectAll(Evaluate): List&amp;lt;Evaluate&amp;gt;&lt;br/&gt;+ updateById(Evaluate): void&lt;br/&gt;+ add(Evaluate): void&lt;br/&gt;+ deleteById(Integer): void&lt;br/&gt;+ setCache(Evaluate): void&lt;br/&gt;+ deleteBatch(List&amp;lt;Integer&amp;gt;): void&lt;/p&gt;" style="verticalAlign=top;align=left;overflow=fill;fontSize=14;fontFamily=Helvetica;html=1;rounded=0;shadow=0;comic=0;labelBackgroundColor=none;strokeWidth=1;">
      <mxGeometry x="262" y="1105" width="388" height="309" as="geometry" />
    </mxCell>
    <mxCell id="node7" parent="1" vertex="1" value="&lt;p style=&quot;margin:0px;margin-top:4px;text-align:center;&quot;&gt;&lt;b&gt;NewsService&lt;/b&gt;&lt;/p&gt;&lt;hr size=&quot;1&quot;/&gt;&lt;p style=&quot;margin:0 0 0 4px;line-height:1.6;&quot;&gt;+ NewsService(): &lt;/p&gt;&lt;hr size=&quot;1&quot;/&gt;&lt;p style=&quot;margin:0 0 0 4px;line-height:1.6;&quot;&gt;- newsMapper: NewsMapper&lt;/p&gt;&lt;hr size=&quot;1&quot;/&gt;&lt;p style=&quot;margin:0 0 0 4px;line-height:1.6;&quot;&gt;+ selectPage(News, Integer, Integer): PageInfo&amp;lt;News&amp;gt;&lt;br/&gt;+ selectAll(News): List&amp;lt;News&amp;gt;&lt;br/&gt;+ selectTopNews(String): List&amp;lt;News&amp;gt;&lt;br/&gt;+ add(News): void&lt;br/&gt;+ selectById(Integer): News&lt;br/&gt;+ updateById(News): void&lt;br/&gt;+ updateCount(Integer): void&lt;br/&gt;+ deleteBatch(List&amp;lt;Integer&amp;gt;): void&lt;br/&gt;+ deleteById(Integer): void&lt;/p&gt;" style="verticalAlign=top;align=left;overflow=fill;fontSize=14;fontFamily=Helvetica;html=1;rounded=0;shadow=0;comic=0;labelBackgroundColor=none;strokeWidth=1;">
      <mxGeometry x="19" y="96" width="354" height="286" as="geometry" />
    </mxCell>
    <mxCell id="node8" parent="1" vertex="1" value="&lt;p style=&quot;margin:0px;margin-top:4px;text-align:center;&quot;&gt;&lt;b&gt;NoticeService&lt;/b&gt;&lt;/p&gt;&lt;hr size=&quot;1&quot;/&gt;&lt;p style=&quot;margin:0 0 0 4px;line-height:1.6;&quot;&gt;+ NoticeService(): &lt;/p&gt;&lt;hr size=&quot;1&quot;/&gt;&lt;p style=&quot;margin:0 0 0 4px;line-height:1.6;&quot;&gt;- noticeMapper: NoticeMapper&lt;/p&gt;&lt;hr size=&quot;1&quot;/&gt;&lt;p style=&quot;margin:0 0 0 4px;line-height:1.6;&quot;&gt;+ add(Notice): void&lt;br/&gt;+ deleteBatch(List&amp;lt;Integer&amp;gt;): void&lt;br/&gt;+ selectById(Integer): Notice&lt;br/&gt;+ selectPage(Notice, Integer, Integer): PageInfo&amp;lt;Notice&amp;gt;&lt;br/&gt;+ deleteById(Integer): void&lt;br/&gt;+ selectAll(Notice): List&amp;lt;Notice&amp;gt;&lt;br/&gt;+ updateById(Notice): void&lt;/p&gt;" style="verticalAlign=top;align=left;overflow=fill;fontSize=14;fontFamily=Helvetica;html=1;rounded=0;shadow=0;comic=0;labelBackgroundColor=none;strokeWidth=1;">
      <mxGeometry x="-227" y="-201" width="366" height="240" as="geometry" />
    </mxCell>
    <mxCell id="node14" parent="1" vertex="1" value="&lt;p style=&quot;margin:0px;margin-top:4px;text-align:center;&quot;&gt;&lt;b&gt;NurseHouseService&lt;/b&gt;&lt;/p&gt;&lt;hr size=&quot;1&quot;/&gt;&lt;p style=&quot;margin:0 0 0 4px;line-height:1.6;&quot;&gt;+ NurseHouseService(): &lt;/p&gt;&lt;hr size=&quot;1&quot;/&gt;&lt;p style=&quot;margin:0 0 0 4px;line-height:1.6;&quot;&gt;- nurseHouseMapper: NurseHouseMapper&lt;/p&gt;&lt;hr size=&quot;1&quot;/&gt;&lt;p style=&quot;margin:0 0 0 4px;line-height:1.6;&quot;&gt;+ add(NurseHouse): void&lt;br/&gt;+ deleteBatch(List&amp;lt;Integer&amp;gt;): void&lt;br/&gt;+ selectPage(NurseHouse, Integer, Integer): PageInfo&amp;lt;NurseHouse&amp;gt;&lt;br/&gt;+ selectById(Integer): NurseHouse&lt;br/&gt;+ updateById(NurseHouse): void&lt;br/&gt;+ deleteById(Integer): void&lt;br/&gt;+ updateCount(Integer): void&lt;br/&gt;+ selectAll(NurseHouse): List&amp;lt;NurseHouse&amp;gt;&lt;/p&gt;" style="verticalAlign=top;align=left;overflow=fill;fontSize=14;fontFamily=Helvetica;html=1;rounded=0;shadow=0;comic=0;labelBackgroundColor=none;strokeWidth=1;">
      <mxGeometry x="1" y="768" width="431" height="263" as="geometry" />
    </mxCell>
    <mxCell id="node9" parent="1" vertex="1" value="&lt;p style=&quot;margin:0px;margin-top:4px;text-align:center;&quot;&gt;&lt;b&gt;OrdersSchedule&lt;/b&gt;&lt;/p&gt;&lt;hr size=&quot;1&quot;/&gt;&lt;p style=&quot;margin:0 0 0 4px;line-height:1.6;&quot;&gt;+ OrdersSchedule(): &lt;/p&gt;&lt;hr size=&quot;1&quot;/&gt;&lt;p style=&quot;margin:0 0 0 4px;line-height:1.6;&quot;&gt;~ userService: UserService&lt;br/&gt;- log: Logger&lt;br/&gt;~ ordersService: OrdersService&lt;/p&gt;&lt;hr size=&quot;1&quot;/&gt;&lt;p style=&quot;margin:0 0 0 4px;line-height:1.6;&quot;&gt;+ task(): void&lt;/p&gt;" style="verticalAlign=top;align=left;overflow=fill;fontSize=14;fontFamily=Helvetica;html=1;rounded=0;shadow=0;comic=0;labelBackgroundColor=none;strokeWidth=1;">
      <mxGeometry x="411" y="1965" width="210" height="148" as="geometry" />
    </mxCell>
    <mxCell id="node6" parent="1" vertex="1" value="&lt;p style=&quot;margin:0px;margin-top:4px;text-align:center;&quot;&gt;&lt;b&gt;OrdersService&lt;/b&gt;&lt;/p&gt;&lt;hr size=&quot;1&quot;/&gt;&lt;p style=&quot;margin:0 0 0 4px;line-height:1.6;&quot;&gt;+ OrdersService(): &lt;/p&gt;&lt;hr size=&quot;1&quot;/&gt;&lt;p style=&quot;margin:0 0 0 4px;line-height:1.6;&quot;&gt;- log: Logger&lt;br/&gt;- ordersMapper: OrdersMapper&lt;br/&gt;~ userService: UserService&lt;br/&gt;~ addressService: AddressService&lt;br/&gt;~ certificationService: CertificationService&lt;/p&gt;&lt;hr size=&quot;1&quot;/&gt;&lt;p style=&quot;margin:0 0 0 4px;line-height:1.6;&quot;&gt;+ selectPage(Orders, Integer, Integer): PageInfo&amp;lt;Orders&amp;gt;&lt;br/&gt;+ deleteById(Integer): void&lt;br/&gt;+ addOrder(Orders): void&lt;br/&gt;+ accept(Orders): void&lt;br/&gt;+ add(Orders): void&lt;br/&gt;+ deleteBatch(List&amp;lt;Integer&amp;gt;): void&lt;br/&gt;+ updateById(Orders): void&lt;br/&gt;+ selectById(Integer): Orders&lt;br/&gt;+ selectAll(Orders): List&amp;lt;Orders&amp;gt;&lt;br/&gt;+ selectPageExamine(Orders, Integer, Integer): PageInfo&amp;lt;Orders&amp;gt;&lt;/p&gt;" style="verticalAlign=top;align=left;overflow=fill;fontSize=14;fontFamily=Helvetica;html=1;rounded=0;shadow=0;comic=0;labelBackgroundColor=none;strokeWidth=1;">
      <mxGeometry x="-212" y="2619" width="417" height="401" as="geometry" />
    </mxCell>
    <mxCell id="node4" parent="1" vertex="1" value="&lt;p style=&quot;margin:0px;margin-top:4px;text-align:center;&quot;&gt;&lt;b&gt;RecordsService&lt;/b&gt;&lt;/p&gt;&lt;hr size=&quot;1&quot;/&gt;&lt;p style=&quot;margin:0 0 0 4px;line-height:1.6;&quot;&gt;+ RecordsService(): &lt;/p&gt;&lt;hr size=&quot;1&quot;/&gt;&lt;p style=&quot;margin:0 0 0 4px;line-height:1.6;&quot;&gt;- recordsMapper: RecordsMapper&lt;br/&gt;- staticRecordMapper: RecordsMapper&lt;br/&gt;- log: Logger&lt;/p&gt;&lt;hr size=&quot;1&quot;/&gt;&lt;p style=&quot;margin:0 0 0 4px;line-height:1.6;&quot;&gt;+ deleteById(Integer): void&lt;br/&gt;+ selectPage(Records, Integer, Integer): PageInfo&amp;lt;Records&amp;gt;&lt;br/&gt;+ deleteBatch(List&amp;lt;Integer&amp;gt;): void&lt;br/&gt;+ add(Records): void&lt;br/&gt;+ updateById(Records): void&lt;br/&gt;+ afterPropertiesSet(): void&lt;br/&gt;+ selectAll(Records): List&amp;lt;Records&amp;gt;&lt;br/&gt;+ addRecord(String, Integer, Integer, BigDecimal, String): void&lt;br/&gt;+ selectById(Integer): Records&lt;/p&gt;" style="verticalAlign=top;align=left;overflow=fill;fontSize=14;fontFamily=Helvetica;html=1;rounded=0;shadow=0;comic=0;labelBackgroundColor=none;strokeWidth=1;">
      <mxGeometry x="40" y="2253" width="393" height="332" as="geometry" />
    </mxCell>
    <mxCell id="node0" parent="1" vertex="1" value="&lt;p style=&quot;margin:0px;margin-top:4px;text-align:center;&quot;&gt;&lt;b&gt;ReserveService&lt;/b&gt;&lt;/p&gt;&lt;hr size=&quot;1&quot;/&gt;&lt;p style=&quot;margin:0 0 0 4px;line-height:1.6;&quot;&gt;+ ReserveService(): &lt;/p&gt;&lt;hr size=&quot;1&quot;/&gt;&lt;p style=&quot;margin:0 0 0 4px;line-height:1.6;&quot;&gt;- reserveMapper: ReserveMapper&lt;/p&gt;&lt;hr size=&quot;1&quot;/&gt;&lt;p style=&quot;margin:0 0 0 4px;line-height:1.6;&quot;&gt;+ selectById(Integer): Reserve&lt;br/&gt;+ deleteById(Integer): void&lt;br/&gt;+ selectAll(Reserve): List&amp;lt;Reserve&amp;gt;&lt;br/&gt;+ selectCount(): List&amp;lt;Dict&amp;gt;&lt;br/&gt;+ add(Reserve): void&lt;br/&gt;+ selectPage(Reserve, Integer, Integer): PageInfo&amp;lt;Reserve&amp;gt;&lt;br/&gt;+ updateById(Reserve): void&lt;br/&gt;+ deleteBatch(List&amp;lt;Integer&amp;gt;): void&lt;/p&gt;" style="verticalAlign=top;align=left;overflow=fill;fontSize=14;fontFamily=Helvetica;html=1;rounded=0;shadow=0;comic=0;labelBackgroundColor=none;strokeWidth=1;">
      <mxGeometry x="626" y="108" width="380" height="263" as="geometry" />
    </mxCell>
    <mxCell id="node3" parent="1" vertex="1" value="&lt;p style=&quot;margin:0px;margin-top:4px;text-align:center;&quot;&gt;&lt;b&gt;ServeService&lt;/b&gt;&lt;/p&gt;&lt;hr size=&quot;1&quot;/&gt;&lt;p style=&quot;margin:0 0 0 4px;line-height:1.6;&quot;&gt;+ ServeService(): &lt;/p&gt;&lt;hr size=&quot;1&quot;/&gt;&lt;p style=&quot;margin:0 0 0 4px;line-height:1.6;&quot;&gt;- serveMapper: ServeMapper&lt;/p&gt;&lt;hr size=&quot;1&quot;/&gt;&lt;p style=&quot;margin:0 0 0 4px;line-height:1.6;&quot;&gt;+ selectPage(Serve, Integer, Integer): PageInfo&amp;lt;Serve&amp;gt;&lt;br/&gt;+ updateById(Serve): void&lt;br/&gt;+ add(Serve): void&lt;br/&gt;+ selectById(Integer): Serve&lt;br/&gt;+ selectAll(Serve): List&amp;lt;Serve&amp;gt;&lt;br/&gt;+ deleteById(Integer): void&lt;br/&gt;+ deleteBatch(List&amp;lt;Integer&amp;gt;): void&lt;/p&gt;" style="verticalAlign=top;align=left;overflow=fill;fontSize=14;fontFamily=Helvetica;html=1;rounded=0;shadow=0;comic=0;labelBackgroundColor=none;strokeWidth=1;">
      <mxGeometry x="280" y="2699" width="352" height="240" as="geometry" />
    </mxCell>
    <mxCell id="node5" parent="1" vertex="1" value="&lt;p style=&quot;margin:0px;margin-top:4px;text-align:center;&quot;&gt;&lt;b&gt;UserService&lt;/b&gt;&lt;/p&gt;&lt;hr size=&quot;1&quot;/&gt;&lt;p style=&quot;margin:0 0 0 4px;line-height:1.6;&quot;&gt;+ UserService(): &lt;/p&gt;&lt;hr size=&quot;1&quot;/&gt;&lt;p style=&quot;margin:0 0 0 4px;line-height:1.6;&quot;&gt;- userMapper: UserMapper&lt;br/&gt;- certificationService: CertificationService&lt;br/&gt;- passwordEncoder: PasswordEncoder&lt;br/&gt;- log: Logger&lt;/p&gt;&lt;hr size=&quot;1&quot;/&gt;&lt;p style=&quot;margin:0 0 0 4px;line-height:1.6;&quot;&gt;+ deleteById(Integer): void&lt;br/&gt;+ selectPage(User, Integer, Integer): PageInfo&amp;lt;User&amp;gt;&lt;br/&gt;+ register(Account): void&lt;br/&gt;+ deleteBatch(List&amp;lt;Integer&amp;gt;): void&lt;br/&gt;+ login(Account): Account&lt;br/&gt;+ selectByUsername(String): User&lt;br/&gt;+ selectById(Integer): User&lt;br/&gt;+ selectAll(User): List&amp;lt;User&amp;gt;&lt;br/&gt;+ add(User): void&lt;br/&gt;+ updateById(User): void&lt;/p&gt;" style="verticalAlign=top;align=left;overflow=fill;fontSize=14;fontFamily=Helvetica;html=1;rounded=0;shadow=0;comic=0;labelBackgroundColor=none;strokeWidth=1;">
      <mxGeometry x="545" y="1470" width="342" height="378" as="geometry" />
    </mxCell>
  </root>
</mxGraphModel>